<!DOCTYPE svg PUBLIC "-//W3C//DTD SVG 1.1//EN" "http://www.w3.org/Graphics/SVG/1.1/DTD/svg11.dtd">
<!-- Uploaded to: SVG Repo, www.svgrepo.com, Transformed by: SVG Repo Mixer Tools -->
<svg width="800px" height="800px" viewBox="0 0 64 64" id="icons" xmlns="http://www.w3.org/2000/svg" fill="#000000">
<g id="SVGRepo_bgCarrier" stroke-width="0"/>
<g id="SVGRepo_tracerCarrier" stroke-linecap="round" stroke-linejoin="round"/>
<g id="SVGRepo_iconCarrier">
<defs>
<style>.cls-1{fill:#ffffff;}</style>
</defs>
<title/>
<path class="cls-1" d="M13,38H53a2,2,0,0,0,1.93-1.47l6-22A2,2,0,0,0,59,12H12.75L12,7.65A2,2,0,0,0,10,6H5a2,2,0,0,0,0,4H8.33l4.28,24A7,7,0,0,0,13,48h1.68a7,7,0,1,0,12.64,0H37.68a7,7,0,1,0,12.64,0H56a2,2,0,0,0,0-4H13a3,3,0,0,1,0-6ZM56.38,16,51.47,34H16.67L13.46,16ZM24,51a3,3,0,1,1-3-3A3,3,0,0,1,24,51Zm23,0a3,3,0,1,1-3-3A3,3,0,0,1,47,51Z"/>
</g>
</svg>